PathFileType	4	(X/Y/Z)	37_2_94_p0_0-1057_filt_butterworth.trc
DataRate	CameraRate	NumFrames	NumMarkers	Units	OrigDataRate	OrigDataStartFrame	OrigNumFrames
59.0	59.0	5	27	m	59.0	528	1057
Frame#	Time	RHip			RKnee			RAnkle			RBigToe			RSmallToe			RHeel			LHip			LKnee			LAnkle			LBigToe			LSmallToe			LHeel			Neck			Head			Nose			RShoulder			RElbow			RWrist			RThumb			RIndex			RPinky			LShoulder			LElbow			LWrist			LThumb			LIndex			LPinky			
		X1	Y1	Z1	X2	Y2	Z2	X3	Y3	Z3	X4	Y4	Z4	X5	Y5	Z5	X6	Y6	Z6	X7	Y7	Z7	X8	Y8	Z8	X9	Y9	Z9	X10	Y10	Z10	X11	Y11	Z11	X12	Y12	Z12	X13	Y13	Z13	X14	Y14	Z14	X15	Y15	Z15	X16	Y16	Z16	X17	Y17	Z17	X18	Y18	Z18	X19	Y19	Z19	X20	Y20	Z20	X21	Y21	Z21	X22	Y22	Z22	X23	Y23	Z23	X24	Y24	Z24	X25	Y25	Z25	X26	Y26	Z26	X27	Y27	Z27	
528	8.94915254237288	0.39480606719722233	0.6919401392965511	0.5213206506474635	0.34861317887942356	0.7912583133791846	0.9533491949445865	0.3813768678684495	1.0138186055808158	1.3738748934283256	0.324151864546421	0.8614664743825788	1.430505075700944	0.38761341711440433	0.8720037523449734	1.4355769167400552	0.36497566972435247	1.1388278627236	1.4297328085850096	0.20863546360832202	0.7604975484275733	0.5042484445374369	0.21392368949828833	0.8312656467664765	0.9386074101923414	0.21181082927730527	1.071000558547294	1.3756142000408873	0.18140609199087776	0.8871526251455932	1.4220239488407427	0.12755926518336447	0.938881394002395	1.4102035039199823	0.22559100032805993	1.160624841829871	1.4334238776427002	0.2750601702480058	0.5707232105646309	-0.025010958440149528	0.21696232095248041	0.41790271726586803	-0.23725637797470822	0.20390068166179887	0.42505135270200706	-0.10725551621414305	0.4006065017107534	0.5248821916742332	0.08237992004688757	0.3529198742022297	0.40850045935729984	0.3011156961086402	0.13844925669059835	0.23754295492888744	0.34256418889533885	0.03476793820889107	0.13736002119617657	0.33859047152329613	0.006607022265406154	0.16517043422424255	0.3468814146856667	0.03956100901055662	0.194665244764808	0.36794202129485226	0.14354525570522825	0.6855096985373268	0.04321864385366456	0.10546631071097073	0.6245085014554291	0.2477206726951036	0.02718386555031987	0.3516948935145191	0.335248706426255	-0.0017864641806216385	0.17942447109430276	0.3414089074300319	-0.01301662400364748	0.1725539106720665	0.35316697665976515	-0.024956373284077717	0.2328405440495489	0.38239639091165784
529	8.966101694915254	0.3947006195182624	0.6917530265911256	0.5219423593342422	0.3494367571361244	0.7912746354686435	0.9541808450590352	0.3813390056815097	1.013822513574979	1.3739029296147551	0.32394663935243223	0.861773240307346	1.4309451479770197	0.38628970883156155	0.8722916510809482	1.4357287043239406	0.36449912486614855	1.1368546648758207	1.4280417293397036	0.2102866851675434	0.7692266072884607	0.5063221473670283	0.21303731832756417	0.8359403168939106	0.9412827617951016	0.21206108180982197	1.0712477636129143	1.3754309449799944	0.18260618704483064	0.8914034107573119	1.422170607641275	0.1276748264361511	0.9389441807043952	1.4133032321140278	0.22402243483857825	1.1594794004570785	1.4330030219643484	0.27588667190278165	0.5686548733151052	-0.022645391881748838	0.21511979249715724	0.41807060176691047	-0.23845890675650663	0.201120972942959	0.42631449889916895	-0.10416347663423153	0.40060747592263174	0.5257817291916657	0.0856178419309459	0.349146390679518	0.41348926266558583	0.3020757056771244	0.1348981929841394	0.23917714550269642	0.34813383864985536	0.024941883042940795	0.15323789916770492	0.352062756947389	0.00015287699435544838	0.16932203144867305	0.35415300012179124	0.036860236192088065	0.18508486945730718	0.37137513972586217	0.14389838848040065	0.6861047558000519	0.045440508224238466	0.10335993995396316	0.6244125968268793	0.24983532579312578	0.02316641195748477	0.3530564673921508	0.34044383631517705	-0.006596831500206089	0.18479581416173882	0.3519341677915833	-0.016934431111648787	0.1831233265561811	0.3572197128079567	-0.03413536743367754	0.24882709891604066	0.38401134844045987
530	8.983050847457626	0.3945594909807846	0.6916880942452952	0.5216353019286966	0.34989269274318124	0.7905018005057127	0.9535723249735594	0.38128871675917425	1.0139018674597802	1.373822180969018	0.32369425211502934	0.8618370659933126	1.4313052633959151	0.38558916678860256	0.8722899126143189	1.4358626417609863	0.3644928568195761	1.1364395905216718	1.42672182864521	0.21086833153448123	0.7753374298364981	0.5063636485243841	0.21189216761488336	0.8412298080350602	0.9420266387295582	0.21213514400083625	1.0712349137759183	1.3750273058712132	0.1830364352234851	0.8931776407710537	1.4213750340298432	0.12772090776727857	0.9391189403234234	1.415957743557874	0.22339584420524244	1.1589908263750497	1.4328649822381687	0.27659237202705955	0.5665676891488947	-0.021862504285381897	0.21444503416507035	0.41805960013293425	-0.24016307767792722	0.200094931920915	0.4272212592819392	-0.10212164073120773	0.40093284271202867	0.5250728849887429	0.08696750972329366	0.34300332600402506	0.4184823862136845	0.3019030593207487	0.12950418110274253	0.24228003330973777	0.3504044542327599	0.015074558448529247	0.16842632165129373	0.3577857441742289	-0.004842926124105665	0.17900816610715556	0.3565440810180636	0.032379422704724534	0.18336356097472636	0.3739562275289704	0.14401701933747396	0.6865259046204102	0.046257232005420576	0.10243340477913832	0.6233051143920607	0.2514845931700717	0.019194081986688823	0.35436348137931556	0.34373937544100697	-0.012175355455937283	0.19772557935354104	0.3571637720318657	-0.02358996509690927	0.1998572568991156	0.35702102251111406	-0.04166861752167518	0.25764690145706975	0.3840035556732791
531	9.0	0.3945524939167364	0.6929744278491304	0.5208494098606751	0.3501224601970722	0.7900440117266668	0.9520518612496589	0.38114072733173676	1.0136828631440131	1.3736775562002876	0.32353787707583503	0.8618303522178794	1.4314749516225462	0.38543909556609396	0.8706677284810742	1.4355150837971369	0.36477230845337183	1.1365469204942529	1.426206618347949	0.21017193335088238	0.7795249854819117	0.5046823760715013	0.21123257431546844	0.8447245231377601	0.9411708236145336	0.21209097493773185	1.0712443633115707	1.3748544744822364	0.18286911893516966	0.8927944550713204	1.420384049371518	0.12766690505378925	0.9393957590233865	1.4170004582606393	0.22337512176114308	1.1589552602822617	1.432928661740914	0.2768383564084063	0.565568190503185	-0.021824158277443502	0.21436456345459445	0.41789245004035835	-0.2415929744056479	0.20014683683153994	0.42768754644771584	-0.1009887869014871	0.40133202820844655	0.5219162620523966	0.08720242526694687	0.3334213531811208	0.4216530607257356	0.30076726772534734	0.12002006733142498	0.2478891259839805	0.3505979639165983	0.004925677787432674	0.1811898664908501	0.3575266535546211	-0.01152903246835026	0.19509055140096856	0.35525751665253213	0.023387909125295675	0.19222286356479407	0.37514929279848425	0.144100051987903	0.6870156472358635	0.04618681536742225	0.10205227306127759	0.619859051817372	0.2520820415657394	0.01498913000429341	0.3578533812993133	0.34343641609329534	-0.018800719084950734	0.21357110588746273	0.35678762533949937	-0.033143765231719614	0.2164644830821653	0.35486401532811396	-0.04784372797066298	0.259612234666928	0.383460868020358
532	9.016949152542374	0.39506005246291	0.6964961374660468	0.5195614100082534	0.35069145895309806	0.7913576174339343	0.9502525924478701	0.3811266669302805	1.0137015257633748	1.3736627104969605	0.3234696251807864	0.861778755620078	1.431480146552476	0.3856751707698329	0.8662019245715304	1.43430045205017	0.36546625561592727	1.1363522920944829	1.4262536998723157	0.20907413608842645	0.7801539925125082	0.5023271532821385	0.21171542567047888	0.8456755190422818	0.9396576179303551	0.2120210379770705	1.0712987164928418	1.3748875673520904	0.18241398677291365	0.8908106104713709	1.4196332603856745	0.1275092440028754	0.9398158105214329	1.4165923883850762	0.22351984007891698	1.1590250087903553	1.4330088577477562	0.2760327321217305	0.565683050548642	-0.02193071661331339	0.21444216933733706	0.4177416516811376	-0.24237940398023575	0.20039149397196032	0.42779824529411603	-0.10088310689831329	0.40163873032388286	0.5170475506724305	0.0872353458834702	0.3219439143292537	0.4211695015073436	0.2991190792076598	0.10671138041553568	0.25613648228870856	0.3496173750183566	-0.0059634362875437726	0.19339144553636672	0.3529239268008675	-0.021375434801474216	0.21455556542147255	0.35162425113056217	0.009685663846615372	0.2057241371298351	0.37459291725988725	0.1442263972832521	0.687350599209385	0.04531183171997972	0.10109085292079922	0.6148644710102011	0.2515416601719736	0.009472704151025853	0.3648447507874532	0.33975416211148934	-0.026157186173294548	0.22576460435119414	0.3516374753488325	-0.04491761808403409	0.22513972946794159	0.35258946171124994	-0.05180033116719309	0.2593359028786537	0.38335767055342657
